sfk_cyclingleg_states
version=1
nRows=8
nColumns=53
inDegrees=yes

# SIMM Motion File Header:
name sfk_cyclingleg_states
datacolumns 53
datarows 8
otherdata 1
range 0.54497863 0.54829687
endheader
time	/jointset/bb/crank_angle/value	/jointset/bb/crank_angle/speed	/jointset/spindle/pedal_angle_r/value	/jointset/spindle/pedal_angle_r/speed	/jointset/ground_pelvis/pelvis_tilt/value	/jointset/ground_pelvis/pelvis_tilt/speed	/jointset/ground_pelvis/pelvis_list/value	/jointset/ground_pelvis/pelvis_list/speed	/jointset/ground_pelvis/pelvis_rotation/value	/jointset/ground_pelvis/pelvis_rotation/speed	/jointset/ground_pelvis/pelvis_tx/value	/jointset/ground_pelvis/pelvis_tx/speed	/jointset/ground_pelvis/pelvis_ty/value	/jointset/ground_pelvis/pelvis_ty/speed	/jointset/ground_pelvis/pelvis_tz/value	/jointset/ground_pelvis/pelvis_tz/speed	/jointset/hip_r/hip_angle_r/value	/jointset/hip_r/hip_angle_r/speed	/jointset/hip_r/hip_adduction_r/value	/jointset/hip_r/hip_adduction_r/speed	/jointset/hip_r/hip_rotation_r/value	/jointset/hip_r/hip_rotation_r/speed	/jointset/knee_r/knee_angle_r/value	/jointset/knee_r/knee_angle_r/speed	/jointset/knee_r/tib_tx_r/value	/jointset/knee_r/tib_tx_r/speed	/jointset/knee_r/tib_ty_r/value	/jointset/knee_r/tib_ty_r/speed	/jointset/tib_pat_r/pat_angle_r/value	/jointset/tib_pat_r/pat_angle_r/speed	/jointset/tib_pat_r/pat_tx_r/value	/jointset/tib_pat_r/pat_tx_r/speed	/jointset/tib_pat_r/pat_ty_r/value	/jointset/tib_pat_r/pat_ty_r/speed	/jointset/ankle_r/ankle_angle_r/value	/jointset/ankle_r/ankle_angle_r/speed	/jointset/subtalar_r/subtalar_angle_r/value	/jointset/subtalar_r/subtalar_angle_r/speed	/jointset/mtp_r/mtp_angle_r/value	/jointset/mtp_r/mtp_angle_r/speed	/forceset/bifemlh_r/activation	/forceset/bifemlh_r/fiber_length	/forceset/bifemsh_r/activation	/forceset/bifemsh_r/fiber_length	/forceset/glut_max2_r/activation	/forceset/glut_max2_r/fiber_length	/forceset/vas_int_r/activation	/forceset/vas_int_r/fiber_length	/forceset/med_gas_r/activation	/forceset/med_gas_r/fiber_length	/forceset/tib_ant_r/activation	/forceset/tib_ant_r/fiber_length
      0.54497863	   -271.80017056	   -480.13863232	    249.25372612	    419.22970723	      0.00000000	      0.00000000	      0.00000000	      0.00000000	      0.00000000	      0.00000000	      0.00000000	     -0.00000000	     -0.00000000	     -0.00000000	     -0.00000000	     -0.00000000	     53.87313268	    146.10192679	      4.22397017	     -2.01691217	     -2.36441858	    -20.88619710	    -99.82444353	   -247.81529240	      0.00213793	     -0.05188247	     -0.48933744	     -0.08532343	     17.60576399	      1.03178212	      0.02881966	     -0.10419144	     -0.02316258	     -0.01406280	     23.97854589	     42.34314513	      0.00000000	      0.00000000	      0.00000000	      0.00000000	     -0.04472390	      0.11508283	     -0.04472390	      0.14850730	     -0.04472390	      0.14007009	     -0.04472390	      0.15336246	      0.05000000	      0.10000000	      0.05000000	      0.10000000
      0.54555133	   -272.07514967	   -480.13863232	    249.49410093	    420.20334544	      0.00000000	      0.00000000	      0.00000000	      0.00000000	      0.00000000	      0.00000000	      0.00000000	     -0.00000000	     -0.00000000	     -0.00000000	     -0.00000000	     -0.00000000	     53.95687552	    146.34326672	      4.22281454	     -2.01874939	     -2.37637447	    -20.86590612	    -99.96620582	   -247.24392311	      0.00210817	     -0.05203876	     -0.48938624	     -0.08510350	     17.60635381	      1.02795997	      0.02876001	     -0.10409495	     -0.02317065	     -0.01409332	     24.00284279	     42.50583174	      0.00000000	      0.00000000	      0.00000000	      0.00000000	     -0.04479764	      0.11514300	     -0.04479764	      0.14846644	     -0.04479764	      0.14012602	     -0.04479764	      0.15344476	      0.05000000	      0.10000000	      0.05000000	      0.10000000
      0.54612404	   -272.35012877	   -480.13863232	    249.73503385	    421.17868703	      0.00000000	      0.00000000	      0.00000000	      0.00000000	      0.00000000	      0.00000000	      0.00000000	     -0.00000000	     -0.00000000	     -0.00000000	     -0.00000000	     -0.00000000	     54.04075643	    146.58410388	      4.22165788	     -2.02049168	     -2.38831866	    -20.84532935	   -100.10763984	   -246.66889033	      0.00207832	     -0.05219266	     -0.48943492	     -0.08488207	     17.60694141	      1.02401381	      0.02870042	     -0.10399613	     -0.02317873	     -0.01412296	     24.02723244	     42.66702205	      0.00000000	      0.00000000	      0.00000000	      0.00000000	     -0.04487138	      0.11520358	     -0.04487138	      0.14842588	     -0.04487138	      0.14018198	     -0.04487138	      0.15349608	      0.05000000	      0.10000000	      0.05000000	      0.10000000
      0.54669675	   -272.62510788	   -480.13863232	    249.97652583	    422.15571070	      0.00000000	      0.00000000	      0.00000000	      0.00000000	      0.00000000	      0.00000000	      0.00000000	     -0.00000000	     -0.00000000	     -0.00000000	     -0.00000000	     -0.00000000	     54.12477512	    146.82441974	      4.22050025	     -2.02213837	     -2.40025097	    -20.82446237	   -100.24874348	   -246.09017947	      0.00204839	     -0.05234410	     -0.48948347	     -0.08465914	     17.60752671	      1.01994530	      0.02864089	     -0.10389499	     -0.02318682	     -0.01415172	     24.05171397	     42.82669828	      0.00000000	      0.00000000	      0.00000000	      0.00000000	     -0.04494511	      0.11526457	     -0.04494511	      0.14838562	     -0.04494511	      0.14023798	     -0.04494511	      0.15356635	      0.05000000	      0.10000000	      0.05000000	      0.10000000
      0.54731657	   -272.92270777	   -480.13863232	    250.23851488	    423.21497791	      0.00000000	      0.00000000	      0.00000000	      0.00000000	      0.00000000	      0.00000000	      0.00000000	     -0.00000000	     -0.00000000	     -0.00000000	     -0.00000000	     -0.00000000	     54.21586039	    147.08390149	      4.21924636	     -2.02381229	     -2.41315133	    -20.80154706	   -100.40108012	   -245.45970639	      0.00201590	     -0.05250521	     -0.48953587	     -0.08441618	     17.60815749	      1.01540622	      0.02857653	     -0.10378289	     -0.02319560	     -0.01418186	     24.07831196	     42.99778321	      0.00000000	      0.00000000	      0.00000000	      0.00000000	     -0.04502491	      0.11533103	     -0.04502491	      0.14834238	     -0.04502491	      0.14029863	     -0.04502491	      0.15364919	      0.05000000	      0.10000000	      0.05000000	      0.10000000
      0.54771976	   -273.11629532	   -480.13863232	    250.40929042	    423.90505763	      0.00000000	      0.00000000	      0.00000000	      0.00000000	      0.00000000	      0.00000000	      0.00000000	     -0.00000000	     -0.00000000	     -0.00000000	     -0.00000000	     -0.00000000	     54.27519725	    147.25234868	      4.21843017	     -2.02484053	     -2.42153528	    -20.78645326	   -100.49996416	   -245.04726199	      0.00199471	     -0.05260844	     -0.48956987	     -0.08425720	     17.60856629	      1.01237873	      0.02853470	     -0.10370848	     -0.02320133	     -0.01420091	     24.09567054	     43.10809908	      0.00000000	      0.00000000	      0.00000000	      0.00000000	     -0.04507682	      0.11537452	     -0.04507682	      0.14831445	     -0.04507682	      0.14033811	     -0.04507682	      0.15378956	      0.05000000	      0.10000000	      0.05000000	      0.10000000
      0.54812295	   -273.30988287	   -480.13863232	    250.58034436	    424.59594044	      0.00000000	      0.00000000	      0.00000000	      0.00000000	      0.00000000	      0.00000000	      0.00000000	     -0.00000000	     -0.00000000	     -0.00000000	     -0.00000000	     -0.00000000	     54.33460198	    147.42051851	      4.21761358	     -2.02582079	     -2.42991312	    -20.77120998	   -100.59868155	   -244.63298183	      0.00197347	     -0.05271043	     -0.48960381	     -0.08409748	     17.60897385	      1.00929295	      0.02849290	     -0.10363290	     -0.02320706	     -0.01421953	     24.11307345	     43.21763954	      0.00000000	      0.00000000	      0.00000000	      0.00000000	     -0.04512874	      0.11541821	     -0.04512874	      0.14828666	     -0.04512874	      0.14037760	     -0.04512874	      0.15378822	      0.05000000	      0.10000000	      0.05000000	      0.10000000
      0.54829687	   -273.39338718	   -480.13863232	    250.65421478	    424.89419982	      0.00000000	      0.00000000	      0.00000000	      0.00000000	      0.00000000	      0.00000000	      0.00000000	     -0.00000000	     -0.00000000	     -0.00000000	     -0.00000000	     -0.00000000	     54.36024723	    147.49297201	      4.21726122	     -2.02622878	     -2.43352502	    -20.76458827	   -100.64121182	   -244.45371390	      0.00196430	     -0.05275404	     -0.48961843	     -0.08402836	     17.60914927	      1.00794405	      0.02847488	     -0.10359994	     -0.02320953	     -0.01422743	     24.12059382	     43.26464902	      0.00000000	      0.00000000	      0.00000000	      0.00000000	     -0.04515113	      0.11543712	     -0.04515113	      0.14827472	     -0.04515113	      0.14039464	     -0.04515113	      0.15379251	      0.05000000	      0.10000000	      0.05000000	      0.10000000
